<?xml version="1.0" encoding="UTF-8"?><svg id="Layer_1" xmlns="http://www.w3.org/2000/svg" viewBox="0 0 601 649"><defs><style>.cls-1{fill:#231f20;}</style></defs><ellipse class="cls-1" cx="300.5" cy="300" rx="151.5" ry="145"/><path class="cls-1" d="M254,529h95.61s9.39,0,16.39-7,10-16,10-16c0,0,11.14-50.78,17-66s28.35-52.55,28.35-52.55H179.64s19.93,30.7,26.36,48.55c9,25,20,71,20,71,0,0,.5,5.5,11,16,6.5,6.5,17,6,17,6Z"/><rect class="cls-1" x="232" y="542" width="138" height="31" rx="15.5" ry="15.5"/><rect class="cls-1" x="239" y="581" width="123" height="31" rx="15.5" ry="15.5"/><path class="cls-1" d="M259,622h84.46s-19.46,27-42.46,27-42-27-42-27Z"/><rect class="cls-1" x="502" y="287" width="99" height="26" rx="13" ry="13"/><rect class="cls-1" y="287" width="99" height="26" rx="13" ry="13"/><rect class="cls-1" x="429" y="465" width="99" height="26" rx="13" ry="13" transform="translate(478.15 -198.35) rotate(45)"/><rect class="cls-1" x="429" y="110" width="99" height="26" rx="13" ry="13" transform="translate(53.18 374.38) rotate(-45)"/><rect class="cls-1" x="74" y="465" width="99" height="26" rx="13" ry="13" transform="translate(-301.82 227.33) rotate(-45)"/><rect class="cls-1" x="75" y="110" width="99" height="26" rx="13" ry="13" transform="translate(125.56 298.01) rotate(-135)"/><rect class="cls-1" x="251.5" y="36.5" width="99" height="26" rx="13" ry="13" transform="translate(251.5 350.5) rotate(-90)"/></svg>