<?xml version="1.0" encoding="UTF-8"?><svg id="Layer_1" xmlns="http://www.w3.org/2000/svg" viewBox="0 0 304 495"><defs><style>.cls-1{fill:#fff;stroke:#231f20;stroke-miterlimit:10;}</style></defs><ellipse class="cls-1" cx="152" cy="145.5" rx="151.5" ry="145"/><path class="cls-1" d="M105.5,374.5h95.61s9.39,0,16.39-7,10-16,10-16c0,0,11.14-50.78,17-66s28.35-52.55,28.35-52.55H31.14s19.93,30.7,26.36,48.55c9,25,20,71,20,71,0,0,.5,5.5,11,16,6.5,6.5,17,6,17,6Z"/><path class="cls-1" d="M99,387.5h107c8.56,0,15.5,6.94,15.5,15.5h0c0,8.56-6.94,15.5-15.5,15.5H99c-8.56,0-15.5-6.94-15.5-15.5h0c0-8.56,6.94-15.5,15.5-15.5Z"/><path class="cls-1" d="M106,426.5h92c8.56,0,15.5,6.94,15.5,15.5h0c0,8.56-6.94,15.5-15.5,15.5H106c-8.56,0-15.5-6.94-15.5-15.5h0c0-8.56,6.94-15.5,15.5-15.5Z"/><path class="cls-1" d="M110.5,467.5h84.46s-19.46,27-42.46,27-42-27-42-27Z"/></svg>